# xmcd
#
# Track frame offsets:
#   150
#   17525
#   32162
#   52021
#   69786
#   90309
#   107903
#   125952
#   145525
#   161410
#   181708
#   197660
#   217292
#   233679
#   248544
#   272962
#   290736
#   309692
#   326859
#
# Disc length: 4576 seconds
#
# Revision: 0
# Processed by: cddbd v1.5.2PL0 Copyright (c) Steve Scherf et al.
# Submitted via: uFREEDB ActiveX Control 1.5
#
DISCID=1611de13
DTITLE=Variadas - Depende
DYEAR=1900
DGENRE=Dance
TTITLE0=a
TTITLE1=b
TTITLE2=c
TTITLE3=d
TTITLE4=e
TTITLE5=f
TTITLE6=g
TTITLE7=h
TTITLE8=i
TTITLE9=j
TTITLE10=l
TTITLE11=m
TTITLE12=n
TTITLE13=o
TTITLE14=p
TTITLE15=q
TTITLE16=r
TTITLE17=s
TTITLE18=t
EXTD=
EXTT0=
EXTT1=
EXTT2=
EXTT3=
EXTT4=
EXTT5=
EXTT6=
EXTT7=
EXTT8=
EXTT9=
EXTT10=
EXTT11=
EXTT12=
EXTT13=
EXTT14=
EXTT15=
EXTT16=
EXTT17=
EXTT18=
PLAYORDER=
